<svg width="20" height="20" viewBox="0 0 20 20" fill="none" xmlns="http://www.w3.org/2000/svg">
<path d="M4.99998 8.33331C4.08331 8.33331 3.33331 9.08331 3.33331 9.99998C3.33331 10.9166 4.08331 11.6666 4.99998 11.6666C5.91665 11.6666 6.66665 10.9166 6.66665 9.99998C6.66665 9.08331 5.91665 8.33331 4.99998 8.33331ZM15 8.33331C14.0833 8.33331 13.3333 9.08331 13.3333 9.99998C13.3333 10.9166 14.0833 11.6666 15 11.6666C15.9166 11.6666 16.6666 10.9166 16.6666 9.99998C16.6666 9.08331 15.9166 8.33331 15 8.33331ZM9.99998 8.33331C9.08331 8.33331 8.33331 9.08331 8.33331 9.99998C8.33331 10.9166 9.08331 11.6666 9.99998 11.6666C10.9166 11.6666 11.6666 10.9166 11.6666 9.99998C11.6666 9.08331 10.9166 8.33331 9.99998 8.33331Z" fill="#C2CFE0"/>
</svg>
